<svg viewBox="0 0 512 512" xmlns="http://www.w3.org/2000/svg" xmlns:xlink="http://www.w3.org/1999/xlink" overflow="hidden"><path d="M504 256C504 119 393 8 256 8 119 8 8 119 8 256 8 379.78 98.69 482.38 217.25 501L217.25 327.69 154.25 327.69 154.25 256 217.25 256 217.25 201.36C217.25 139.21 254.25 104.88 310.92 104.88 338.06 104.88 366.44 109.72 366.44 109.72L366.44 170.72 335.16 170.72C304.36 170.72 294.75 189.84 294.75 209.45L294.75 256 363.53 256 352.53 327.69 294.75 327.69 294.75 501C413.31 482.38 504 379.78 504 256Z" fill="#69A297"/></svg>